<svg version="1.1" xmlns="http://www.w3.org/2000/svg" xmlns:xlink="http://www.w3.org/1999/xlink" x="0px" y="0px" width="100%" height="100%" viewBox="0 0 708.7 841.9" style="enable-background:new 0 0 708.7 841.9;" xml:space="preserve"><style type="text/css"> .st0{fill:none;stroke:#FFFFFF;stroke-width:0.25;stroke-miterlimit:10;} .st1{clip-path:url(#SVGID_2_);fill:#FFFFFF;} .st2{clip-path:url(#SVGID_2_);fill:#010101;} </style><g id="Layer_3"><g><defs><rect id="SVGID_1_" x="122.1" y="273" width="441.1" height="320.1"/></defs><clipPath id="SVGID_2_"><use xlink:href="#SVGID_1_" style="overflow:visible;"/></clipPath><path class="st1" d="M511.9,273H169.4c-26.1,0-47.2,21.1-47.2,47.2v33.7c0,26.1,21.1,47.2,47.2,47.2h133.9v29.7 c0,3.1,1.9,5.9,4.7,7.1c0.9,0.4,1.9,0.6,2.9,0.6c2,0,4-0.8,5.4-2.2l35.1-35.1h115l34.6-34.6c1.5-1.5,3.4-2.2,5.4-2.2 c1,0,2,0.2,2.9,0.6c2.9,1.2,4.7,4,4.7,7.1v29.1c25.1-1.1,45.1-21.8,45.1-47.2v-33.7C559.1,294.1,538,273,511.9,273"/><path class="st2" d="M514.1,401.2v-29.3c0-3.1-1.9-5.9-4.7-7.1c-0.9-0.4-1.9-0.6-2.9-0.6c-2,0-3.9,0.8-5.4,2.2l-34.6,34.6h-115 l-35.1,35.1c-1.5,1.5-3.4,2.2-5.4,2.2c-1,0-2-0.2-2.9-0.6c-2.9-1.2-4.7-4-4.7-7.1v-29.7c-25.2,1-45.3,21.7-45.3,47.2V482 c0,26.1,21.1,47.2,47.2,47.2h206.7c26.1,0,47.2-21.2,47.2-47.2v-33.7C559.1,423,539.1,402.3,514.1,401.2"/><path class="st1" d="M376.6,435.8h-47.6v13.6h15.5v47.1h16.3v-47.1h15.8V435.8 M410.6,470.8c0-11.1-5.3-19.5-20.5-19.5 c-9.2,0-15.5,2.5-18.4,4l2.9,10.4c2.9-1.7,7.8-3.3,12.5-3.3c5.8,0,7.2,2,7.2,3.8v0.4c-15,0.1-25.7,5.3-25.7,17.2 c0,7.4,5.6,14,14.6,14c4.8,0,9.2-1.4,12.3-4.9h0.3l0.9,3.9h14.6c-0.5-2.3-0.7-6.4-0.7-10.8V470.8z M394.9,479.9 c0,0.8,0,1.6-0.2,2.3c-0.7,2.4-3.2,4.1-5.6,4.1c-2.7,0-4.6-1.4-4.6-4.2c0-3.9,3.8-5.8,10.4-5.8V479.9z M416.5,496.5h16.2v-64 h-16.2V496.5z M470.3,470.1l15.3-17.8h-19.4l-7.3,12.6c-1,1.6-1.9,3.4-2.9,5.4h-0.2v-37.7h-16.2v64h16.2v-12.6l3.2-4.3l8.7,16.9 h20L470.3,470.1z"/><path class="st2" d="M212.9,326.9c-7.7-2.9-10.9-4.1-10.9-7.2c0-2.7,2.7-4.5,7.7-4.5c6.1,0,10.6,1.7,13.2,2.9l3.4-13 c-4.1-1.8-9.2-3.2-16.5-3.2c-15.3,0-24.3,8.3-24.3,19c0,9,6.8,14.7,17,18.3c6.8,2.3,9.5,4.1,9.5,7c0,3.1-2.7,5-8.3,5 c-6,0-12.1-1.9-15.8-3.8l-3.1,13.4c3.4,1.8,10.5,3.8,17.8,3.8c17.7,0,25.9-9,25.9-19.5C228.8,336.7,223.8,330.9,212.9,326.9 M335.4,337.9c0-11.1-5.3-19.5-20.5-19.5c-9.2,0-15.5,2.5-18.4,4l2.9,10.4c2.9-1.7,7.8-3.3,12.5-3.3c5.9,0,7.2,2,7.2,3.8v0.4 c-15,0.1-25.7,5.3-25.7,17.2c0,7.4,5.6,14,14.6,14c4.8,0,9.2-1.4,12.3-4.9h0.3l0.9,3.9h14.6c-0.5-2.3-0.7-6.4-0.7-10.8V337.9z M319.6,347c0,0.8,0,1.6-0.2,2.3c-0.7,2.4-3.2,4.1-5.6,4.1c-2.7,0-4.6-1.4-4.6-4.2c0-3.9,3.8-5.8,10.4-5.8V347z M293.8,318.6 c-1.2-0.3-1.8-0.3-3.2-0.3c-3.8,0-9.5,2.2-11.8,9h-0.4l-0.5-8H264c0.2,3.7,0.4,7.9,0.4,15v29.4h16.2v-21.9c0-1.1,0.1-2,0.3-2.8 c0.8-3.6,4.1-5.6,8.8-5.6c1.7,0,3,0.2,4.1,0.5V318.6z M250.2,306.7l-15.9,4.2v8.4h-5.5v11.9h5.5v15.5c0,6.8,1.4,11.2,4.1,13.9 c2.3,2.3,6.3,4.1,11.1,4.1c4.1,0,7.7-0.6,9.6-1.3V351c-1.3,0.4-2,0.4-3.9,0.4c-3.9,0-5.1-2.2-5.1-7.5v-12.7h9.2v-11.9h-9.2V306.7z M491.6,331.2v-11.9h-9.2v-12.6l-15.9,4.2v8.4h-5.5v11.9h5.5v15.5c0,6.8,1.4,11.2,4.1,13.9c2.3,2.3,6.3,4.1,11.1,4.1 c4.1,0,7.7-0.6,9.6-1.3V351c-1.3,0.4-2,0.4-3.9,0.4c-3.9,0-5.1-2.2-5.1-7.5v-12.7H491.6z M394.7,324h-0.2c-2.3-3.6-6-5.7-11.4-5.7 c-11.1,0-20.1,9.3-20.1,23.2c0,12.9,7.8,21.5,18.7,21.5c4.4,0,8.4-1.5,11.1-5h0.2v2c0,6.9-4.5,10-10.3,10c-5,0-10.1-1.7-12.8-3.2 l-3.1,12.3c4.1,2.1,10.4,3.2,16.5,3.2c6.8,0,13.6-1.2,18.7-5.5c5.3-4.7,6.8-12,6.8-19.8V333c0-7.1,0.2-11,0.4-13.7h-14.1 L394.7,324z M392.6,343.6c0,1,0,2.4-0.3,3.3c-0.5,2.4-2.7,4.4-5.7,4.4c-4.5,0-7.2-4.2-7.2-10c0-7,3.3-10.8,7.2-10.8 c3,0,5,1.9,5.8,5c0.1,0.6,0.2,1.4,0.2,2.1V343.6z M443.6,318.3c-2.3,0-4.8,0.5-6.8,1.5c-2,0.9-3.7,2.3-5.2,4.1h-0.2v-24.3h-16.2 v64h16.2v-26.1c0-0.7,0.1-1.9,0.5-2.6c0.7-1.7,2.2-3.5,5.2-3.5c4.1,0,5.8,3.2,5.8,8.4v23.9h16.2V338 C459.1,325.5,453.6,318.3,443.6,318.3 M341.5,363.7h16.2v-44.3h-16.2V363.7z M349.6,299.4c-5,0-8.3,3.2-8.3,7.7 c0,4.3,3.2,7.7,8.2,7.7c5.1,0,8.4-3.4,8.4-7.7C357.8,302.7,354.7,299.4,349.6,299.4"/><path class="st2" d="M563.3,401.5c0,4.4-3.6,8-8.1,8c-4.5,0-8.2-3.5-8.2-8s3.6-7.9,8.2-7.9C559.7,393.6,563.3,397,563.3,401.5 M549,401.5c0,3.5,2.7,6.3,6.2,6.3c3.4,0,6-2.8,6-6.3c0-3.5-2.6-6.4-6.1-6.4C551.7,395.2,549,398,549,401.5 M553.9,405.6H552v-7.9 c0.7-0.1,1.7-0.2,3-0.2c1.5,0,2.2,0.2,2.7,0.6c0.5,0.3,0.8,0.9,0.8,1.7c0,1-0.7,1.6-1.6,1.9v0.1c0.8,0.2,1.2,0.9,1.4,1.9 c0.2,1.2,0.4,1.6,0.6,1.9H557c-0.2-0.3-0.4-1-0.6-1.9c-0.1-0.8-0.6-1.2-1.6-1.2h-0.9V405.6z M553.9,401.1h0.9c1,0,1.8-0.3,1.8-1.2 c0-0.7-0.5-1.2-1.7-1.2c-0.5,0-0.8,0.1-1,0.1V401.1z"/><path class="st2" d="M333.1,556.7l4.8,18.1c1,4,1.9,7.6,2.6,11.3h0.2c0.8-3.6,2-7.4,3.2-11.2l5.8-18.1h5.4l5.5,17.8 c1.3,4.3,2.4,8,3.2,11.6h0.2c0.6-3.6,1.5-7.3,2.7-11.5l5.1-17.8h6.4l-11.5,35.5h-5.9l-5.4-17c-1.2-4-2.3-7.5-3.2-11.7h-0.1 c-0.9,4.3-2,7.9-3.2,11.8l-5.7,16.9h-5.9l-10.7-35.5H333.1"/><path class="st2" d="M390.3,546.7c0,2.2-1.5,4-4.1,4c-2.3,0-3.9-1.8-3.9-4c0-2.2,1.6-4,4-4C388.6,542.7,390.3,544.4,390.3,546.7 M389.5,592.2h-6.5v-35.5h6.5V592.2z"/><path class="st2" d="M396.9,567.8c0-4.2-0.1-7.8-0.3-11.1h5.7l0.3,7.1h0.2c1.6-4.8,5.6-7.8,9.9-7.8c0.7,0,1.2,0.1,1.8,0.1v6.1 c-0.7-0.1-1.3-0.1-2.2-0.1c-4.6,0-7.8,3.4-8.7,8.2c-0.1,0.9-0.2,2-0.2,3v18.9h-6.5V567.8"/><path class="st2" d="M422.7,575.6c0.1,8.7,5.7,12.3,12.2,12.3c4.6,0,7.5-0.8,9.8-1.8l1.2,4.6c-2.3,1-6.2,2.3-11.9,2.3 c-10.9,0-17.5-7.3-17.5-18c0-10.7,6.3-19.1,16.7-19.1c11.7,0,14.7,10.1,14.7,16.7c0,1.3-0.1,2.3-0.2,3H422.7 M441.7,571 c0.1-4-1.7-10.4-9-10.4c-6.6,0-9.4,5.9-9.9,10.4H441.7z"/><rect x="454.4" y="543.1" class="st2" width="6.5" height="49.1"/><path class="st2" d="M473.2,575.6c0.1,8.7,5.7,12.3,12.2,12.3c4.6,0,7.5-0.8,9.8-1.8l1.2,4.6c-2.3,1-6.2,2.3-11.9,2.3 c-10.9,0-17.5-7.3-17.5-18c0-10.7,6.3-19.1,16.7-19.1c11.7,0,14.7,10.1,14.7,16.7c0,1.3-0.1,2.3-0.2,3H473.2 M492.1,571 c0.1-4-1.7-10.4-9-10.4c-6.6,0-9.4,5.9-9.9,10.4H492.1z"/><path class="st2" d="M503.9,585.7c2,1.2,5.4,2.5,8.6,2.5c4.6,0,6.8-2.3,6.8-5.3c0-3.1-1.8-4.7-6.5-6.5c-6.5-2.4-9.5-5.8-9.5-10.1 c0-5.7,4.7-10.4,12.3-10.4c3.6,0,6.8,1,8.7,2.2l-1.5,4.7c-1.4-0.9-4-2.1-7.3-2.1c-3.8,0-5.9,2.2-5.9,4.8c0,2.9,2.1,4.3,6.7,6.1 c6.1,2.3,9.3,5.4,9.3,10.6c0,6.3-4.9,10.7-13.2,10.7c-3.9,0-7.5-1-10-2.5L503.9,585.7"/><path class="st2" d="M531.2,585.7c2,1.2,5.4,2.5,8.6,2.5c4.6,0,6.8-2.3,6.8-5.3c0-3.1-1.8-4.7-6.5-6.5c-6.5-2.4-9.5-5.8-9.5-10.1 c0-5.7,4.7-10.4,12.3-10.4c3.6,0,6.8,1,8.7,2.2l-1.5,4.7c-1.4-0.9-4-2.1-7.3-2.1c-3.8,0-5.9,2.2-5.9,4.8c0,2.9,2.1,4.3,6.7,6.1 c6.1,2.3,9.3,5.4,9.3,10.6c0,6.3-4.9,10.7-13.2,10.7c-3.9,0-7.5-1-10-2.5L531.2,585.7"/></g></g></svg>